<mxfile host="app.diagrams.net" modified="2023-10-10T00:58:41.422Z" agent="Mozilla/5.0 (Windows NT 10.0; Win64; x64) AppleWebKit/537.36 (KHTML, like Gecko) Chrome/117.0.0.0 Safari/537.36" etag="fLFewErx4hbX8WfFKCFK" version="21.6.8" type="device">
  <diagram name="Página-1" id="TsjH73bjmUuAHsKGguwx">
    <mxGraphModel dx="2620" dy="2147" grid="1" gridSize="10" guides="1" tooltips="1" connect="1" arrows="1" fold="1" page="1" pageScale="1" pageWidth="827" pageHeight="1169" math="0" shadow="0">
      <root>
        <mxCell id="0" />
        <mxCell id="1" parent="0" />
        <mxCell id="50nzggHdHZp199gyNVKQ-11" value="Cliente" style="shape=umlFrame;whiteSpace=wrap;html=1;pointerEvents=0;recursiveResize=0;container=1;collapsible=0;width=160;" vertex="1" parent="1">
          <mxGeometry x="-110" y="-160" width="1100" height="1330" as="geometry" />
        </mxCell>
        <mxCell id="50nzggHdHZp199gyNVKQ-1" value="" style="ellipse;html=1;" vertex="1" parent="50nzggHdHZp199gyNVKQ-11">
          <mxGeometry x="70" y="100" width="30" height="30" as="geometry" />
        </mxCell>
        <mxCell id="50nzggHdHZp199gyNVKQ-16" value="Preenche os dados&amp;nbsp; para cadastro" style="edgeStyle=orthogonalEdgeStyle;rounded=0;orthogonalLoop=1;jettySize=auto;html=1;exitX=1;exitY=0.5;exitDx=0;exitDy=0;entryX=0;entryY=0.5;entryDx=0;entryDy=0;" edge="1" parent="50nzggHdHZp199gyNVKQ-11" source="50nzggHdHZp199gyNVKQ-6" target="50nzggHdHZp199gyNVKQ-14">
          <mxGeometry x="-0.04" y="22" relative="1" as="geometry">
            <mxPoint x="-12" y="-20" as="offset" />
          </mxGeometry>
        </mxCell>
        <mxCell id="50nzggHdHZp199gyNVKQ-6" value="" style="rounded=1;whiteSpace=wrap;html=1;" vertex="1" parent="50nzggHdHZp199gyNVKQ-11">
          <mxGeometry x="160" y="80" width="160" height="100" as="geometry" />
        </mxCell>
        <mxCell id="50nzggHdHZp199gyNVKQ-8" style="edgeStyle=orthogonalEdgeStyle;rounded=0;orthogonalLoop=1;jettySize=auto;html=1;exitX=1;exitY=0.5;exitDx=0;exitDy=0;entryX=-0.034;entryY=0.435;entryDx=0;entryDy=0;entryPerimeter=0;" edge="1" parent="50nzggHdHZp199gyNVKQ-11" source="50nzggHdHZp199gyNVKQ-1" target="50nzggHdHZp199gyNVKQ-6">
          <mxGeometry relative="1" as="geometry" />
        </mxCell>
        <mxCell id="50nzggHdHZp199gyNVKQ-7" value="" style="endArrow=none;html=1;rounded=0;entryX=1;entryY=0.296;entryDx=0;entryDy=0;entryPerimeter=0;exitX=-0.005;exitY=0.296;exitDx=0;exitDy=0;exitPerimeter=0;" edge="1" parent="50nzggHdHZp199gyNVKQ-11" source="50nzggHdHZp199gyNVKQ-6" target="50nzggHdHZp199gyNVKQ-6">
          <mxGeometry width="50" height="50" relative="1" as="geometry">
            <mxPoint x="466.34999999999997" y="-10" as="sourcePoint" />
            <mxPoint x="516.3499999999999" y="-60" as="targetPoint" />
          </mxGeometry>
        </mxCell>
        <mxCell id="50nzggHdHZp199gyNVKQ-2" value="" style="ellipse;html=1;shape=endState;" vertex="1" parent="50nzggHdHZp199gyNVKQ-11">
          <mxGeometry x="460.7" y="540" width="30" height="30" as="geometry" />
        </mxCell>
        <mxCell id="50nzggHdHZp199gyNVKQ-20" style="edgeStyle=orthogonalEdgeStyle;rounded=0;orthogonalLoop=1;jettySize=auto;html=1;exitX=0.5;exitY=1;exitDx=0;exitDy=0;" edge="1" parent="50nzggHdHZp199gyNVKQ-11" source="50nzggHdHZp199gyNVKQ-14" target="50nzggHdHZp199gyNVKQ-19">
          <mxGeometry relative="1" as="geometry" />
        </mxCell>
        <mxCell id="50nzggHdHZp199gyNVKQ-14" value="" style="rounded=1;whiteSpace=wrap;html=1;" vertex="1" parent="50nzggHdHZp199gyNVKQ-11">
          <mxGeometry x="560" y="80" width="149.3" height="110" as="geometry" />
        </mxCell>
        <mxCell id="50nzggHdHZp199gyNVKQ-15" value="" style="endArrow=none;html=1;rounded=0;entryX=1;entryY=0.296;entryDx=0;entryDy=0;entryPerimeter=0;exitX=-0.005;exitY=0.296;exitDx=0;exitDy=0;exitPerimeter=0;" edge="1" parent="50nzggHdHZp199gyNVKQ-11" source="50nzggHdHZp199gyNVKQ-14" target="50nzggHdHZp199gyNVKQ-14">
          <mxGeometry width="50" height="50" relative="1" as="geometry">
            <mxPoint x="705.7" y="-5" as="sourcePoint" />
            <mxPoint x="755.7" y="-55" as="targetPoint" />
          </mxGeometry>
        </mxCell>
        <mxCell id="50nzggHdHZp199gyNVKQ-17" value="Validando os dados do cliente" style="text;html=1;strokeColor=none;fillColor=none;align=center;verticalAlign=middle;whiteSpace=wrap;rounded=0;" vertex="1" parent="50nzggHdHZp199gyNVKQ-11">
          <mxGeometry x="584.65" y="85" width="100" height="30" as="geometry" />
        </mxCell>
        <mxCell id="50nzggHdHZp199gyNVKQ-27" value="Valido" style="edgeStyle=orthogonalEdgeStyle;rounded=0;orthogonalLoop=1;jettySize=auto;html=1;exitX=0.5;exitY=1;exitDx=0;exitDy=0;entryX=0.5;entryY=0;entryDx=0;entryDy=0;" edge="1" parent="50nzggHdHZp199gyNVKQ-11" source="50nzggHdHZp199gyNVKQ-19" target="50nzggHdHZp199gyNVKQ-23">
          <mxGeometry x="0.0937" y="21" relative="1" as="geometry">
            <mxPoint y="-2" as="offset" />
          </mxGeometry>
        </mxCell>
        <mxCell id="50nzggHdHZp199gyNVKQ-32" value="caso não seja aceito" style="edgeStyle=orthogonalEdgeStyle;rounded=0;orthogonalLoop=1;jettySize=auto;html=1;exitX=0;exitY=0.5;exitDx=0;exitDy=0;" edge="1" parent="50nzggHdHZp199gyNVKQ-11" source="50nzggHdHZp199gyNVKQ-19" target="50nzggHdHZp199gyNVKQ-25">
          <mxGeometry x="0.0432" y="-20" relative="1" as="geometry">
            <mxPoint as="offset" />
          </mxGeometry>
        </mxCell>
        <mxCell id="50nzggHdHZp199gyNVKQ-19" value="" style="rhombus;whiteSpace=wrap;html=1;" vertex="1" parent="50nzggHdHZp199gyNVKQ-11">
          <mxGeometry x="614.65" y="290" width="40" height="40" as="geometry" />
        </mxCell>
        <mxCell id="50nzggHdHZp199gyNVKQ-30" style="edgeStyle=orthogonalEdgeStyle;rounded=0;orthogonalLoop=1;jettySize=auto;html=1;exitX=0.25;exitY=1;exitDx=0;exitDy=0;entryX=1;entryY=0.5;entryDx=0;entryDy=0;" edge="1" parent="50nzggHdHZp199gyNVKQ-11" source="50nzggHdHZp199gyNVKQ-23" target="50nzggHdHZp199gyNVKQ-2">
          <mxGeometry relative="1" as="geometry" />
        </mxCell>
        <mxCell id="50nzggHdHZp199gyNVKQ-23" value="-do/RegistrarCliente()" style="rounded=1;whiteSpace=wrap;html=1;" vertex="1" parent="50nzggHdHZp199gyNVKQ-11">
          <mxGeometry x="569.65" y="390" width="140" height="100" as="geometry" />
        </mxCell>
        <mxCell id="50nzggHdHZp199gyNVKQ-24" value="" style="endArrow=none;html=1;rounded=0;entryX=1;entryY=0.296;entryDx=0;entryDy=0;entryPerimeter=0;exitX=-0.005;exitY=0.296;exitDx=0;exitDy=0;exitPerimeter=0;" edge="1" parent="50nzggHdHZp199gyNVKQ-11" source="50nzggHdHZp199gyNVKQ-23" target="50nzggHdHZp199gyNVKQ-23">
          <mxGeometry width="50" height="50" relative="1" as="geometry">
            <mxPoint x="865.7" y="285" as="sourcePoint" />
            <mxPoint x="915.7" y="235" as="targetPoint" />
          </mxGeometry>
        </mxCell>
        <mxCell id="50nzggHdHZp199gyNVKQ-31" style="edgeStyle=orthogonalEdgeStyle;rounded=0;orthogonalLoop=1;jettySize=auto;html=1;exitX=0.5;exitY=1;exitDx=0;exitDy=0;entryX=0.688;entryY=-0.061;entryDx=0;entryDy=0;entryPerimeter=0;" edge="1" parent="50nzggHdHZp199gyNVKQ-11" source="50nzggHdHZp199gyNVKQ-25" target="50nzggHdHZp199gyNVKQ-2">
          <mxGeometry relative="1" as="geometry" />
        </mxCell>
        <mxCell id="50nzggHdHZp199gyNVKQ-25" value="" style="rounded=1;whiteSpace=wrap;html=1;" vertex="1" parent="50nzggHdHZp199gyNVKQ-11">
          <mxGeometry x="350.7" y="260" width="140" height="100" as="geometry" />
        </mxCell>
        <mxCell id="50nzggHdHZp199gyNVKQ-26" value="" style="endArrow=none;html=1;rounded=0;entryX=1;entryY=0.296;entryDx=0;entryDy=0;entryPerimeter=0;exitX=-0.005;exitY=0.296;exitDx=0;exitDy=0;exitPerimeter=0;" edge="1" parent="50nzggHdHZp199gyNVKQ-11" source="50nzggHdHZp199gyNVKQ-25" target="50nzggHdHZp199gyNVKQ-25">
          <mxGeometry width="50" height="50" relative="1" as="geometry">
            <mxPoint x="635.7" y="170" as="sourcePoint" />
            <mxPoint x="685.7" y="120" as="targetPoint" />
          </mxGeometry>
        </mxCell>
        <mxCell id="50nzggHdHZp199gyNVKQ-28" value="Registrando conta" style="text;html=1;strokeColor=none;fillColor=none;align=center;verticalAlign=middle;whiteSpace=wrap;rounded=0;" vertex="1" parent="50nzggHdHZp199gyNVKQ-11">
          <mxGeometry x="584.65" y="390" width="110" height="30" as="geometry" />
        </mxCell>
        <mxCell id="50nzggHdHZp199gyNVKQ-33" value="Recusado" style="text;html=1;strokeColor=none;fillColor=none;align=center;verticalAlign=middle;whiteSpace=wrap;rounded=0;" vertex="1" parent="50nzggHdHZp199gyNVKQ-11">
          <mxGeometry x="390.7" y="260" width="60" height="30" as="geometry" />
        </mxCell>
        <mxCell id="50nzggHdHZp199gyNVKQ-35" value="" style="ellipse;html=1;" vertex="1" parent="50nzggHdHZp199gyNVKQ-11">
          <mxGeometry x="45" y="680" width="30" height="30" as="geometry" />
        </mxCell>
        <mxCell id="50nzggHdHZp199gyNVKQ-37" value="" style="rounded=1;whiteSpace=wrap;html=1;" vertex="1" parent="50nzggHdHZp199gyNVKQ-11">
          <mxGeometry x="135" y="660" width="160" height="100" as="geometry" />
        </mxCell>
        <mxCell id="50nzggHdHZp199gyNVKQ-38" style="edgeStyle=orthogonalEdgeStyle;rounded=0;orthogonalLoop=1;jettySize=auto;html=1;exitX=1;exitY=0.5;exitDx=0;exitDy=0;entryX=-0.034;entryY=0.435;entryDx=0;entryDy=0;entryPerimeter=0;" edge="1" parent="50nzggHdHZp199gyNVKQ-11" source="50nzggHdHZp199gyNVKQ-35" target="50nzggHdHZp199gyNVKQ-37">
          <mxGeometry relative="1" as="geometry" />
        </mxCell>
        <mxCell id="50nzggHdHZp199gyNVKQ-39" value="" style="endArrow=none;html=1;rounded=0;entryX=1;entryY=0.296;entryDx=0;entryDy=0;entryPerimeter=0;exitX=-0.005;exitY=0.296;exitDx=0;exitDy=0;exitPerimeter=0;" edge="1" parent="50nzggHdHZp199gyNVKQ-11" source="50nzggHdHZp199gyNVKQ-37" target="50nzggHdHZp199gyNVKQ-37">
          <mxGeometry width="50" height="50" relative="1" as="geometry">
            <mxPoint x="441.34999999999997" y="570" as="sourcePoint" />
            <mxPoint x="491.3499999999999" y="520" as="targetPoint" />
          </mxGeometry>
        </mxCell>
        <mxCell id="50nzggHdHZp199gyNVKQ-41" value="" style="ellipse;html=1;shape=endState;" vertex="1" parent="50nzggHdHZp199gyNVKQ-11">
          <mxGeometry x="435.7" y="1120" width="30" height="30" as="geometry" />
        </mxCell>
        <mxCell id="50nzggHdHZp199gyNVKQ-43" value="" style="rounded=1;whiteSpace=wrap;html=1;" vertex="1" parent="50nzggHdHZp199gyNVKQ-11">
          <mxGeometry x="535" y="660" width="149.3" height="110" as="geometry" />
        </mxCell>
        <mxCell id="50nzggHdHZp199gyNVKQ-36" value="Preenche os dados&amp;nbsp; para login" style="edgeStyle=orthogonalEdgeStyle;rounded=0;orthogonalLoop=1;jettySize=auto;html=1;exitX=1;exitY=0.5;exitDx=0;exitDy=0;entryX=0;entryY=0.5;entryDx=0;entryDy=0;" edge="1" parent="50nzggHdHZp199gyNVKQ-11" source="50nzggHdHZp199gyNVKQ-37" target="50nzggHdHZp199gyNVKQ-43">
          <mxGeometry x="-0.04" y="22" relative="1" as="geometry">
            <mxPoint x="-12" y="-20" as="offset" />
          </mxGeometry>
        </mxCell>
        <mxCell id="50nzggHdHZp199gyNVKQ-44" value="" style="endArrow=none;html=1;rounded=0;entryX=1;entryY=0.296;entryDx=0;entryDy=0;entryPerimeter=0;exitX=-0.005;exitY=0.296;exitDx=0;exitDy=0;exitPerimeter=0;" edge="1" parent="50nzggHdHZp199gyNVKQ-11" source="50nzggHdHZp199gyNVKQ-43" target="50nzggHdHZp199gyNVKQ-43">
          <mxGeometry width="50" height="50" relative="1" as="geometry">
            <mxPoint x="680.7" y="575" as="sourcePoint" />
            <mxPoint x="730.7" y="525" as="targetPoint" />
          </mxGeometry>
        </mxCell>
        <mxCell id="50nzggHdHZp199gyNVKQ-45" value="Validando os dados do cliente" style="text;html=1;strokeColor=none;fillColor=none;align=center;verticalAlign=middle;whiteSpace=wrap;rounded=0;" vertex="1" parent="50nzggHdHZp199gyNVKQ-11">
          <mxGeometry x="559.65" y="665" width="100" height="30" as="geometry" />
        </mxCell>
        <mxCell id="50nzggHdHZp199gyNVKQ-63" style="edgeStyle=orthogonalEdgeStyle;rounded=0;orthogonalLoop=1;jettySize=auto;html=1;exitX=0.5;exitY=1;exitDx=0;exitDy=0;entryX=0.5;entryY=0;entryDx=0;entryDy=0;" edge="1" parent="50nzggHdHZp199gyNVKQ-11" source="50nzggHdHZp199gyNVKQ-48" target="50nzggHdHZp199gyNVKQ-60">
          <mxGeometry relative="1" as="geometry" />
        </mxCell>
        <mxCell id="50nzggHdHZp199gyNVKQ-48" value="" style="rhombus;whiteSpace=wrap;html=1;" vertex="1" parent="50nzggHdHZp199gyNVKQ-11">
          <mxGeometry x="589.65" y="870" width="40" height="40" as="geometry" />
        </mxCell>
        <mxCell id="50nzggHdHZp199gyNVKQ-42" value="Login com e-mail e senha" style="edgeStyle=orthogonalEdgeStyle;rounded=0;orthogonalLoop=1;jettySize=auto;html=1;exitX=0.5;exitY=1;exitDx=0;exitDy=0;" edge="1" parent="50nzggHdHZp199gyNVKQ-11" source="50nzggHdHZp199gyNVKQ-43" target="50nzggHdHZp199gyNVKQ-48">
          <mxGeometry y="70" relative="1" as="geometry">
            <mxPoint as="offset" />
          </mxGeometry>
        </mxCell>
        <mxCell id="50nzggHdHZp199gyNVKQ-74" style="edgeStyle=orthogonalEdgeStyle;rounded=0;orthogonalLoop=1;jettySize=auto;html=1;exitX=0;exitY=0.5;exitDx=0;exitDy=0;entryX=1;entryY=0.5;entryDx=0;entryDy=0;" edge="1" parent="50nzggHdHZp199gyNVKQ-11" source="50nzggHdHZp199gyNVKQ-50" target="50nzggHdHZp199gyNVKQ-41">
          <mxGeometry relative="1" as="geometry" />
        </mxCell>
        <mxCell id="50nzggHdHZp199gyNVKQ-50" value="-do/Logar()" style="rounded=1;whiteSpace=wrap;html=1;" vertex="1" parent="50nzggHdHZp199gyNVKQ-11">
          <mxGeometry x="740" y="1140" width="140" height="100" as="geometry" />
        </mxCell>
        <mxCell id="50nzggHdHZp199gyNVKQ-51" value="" style="endArrow=none;html=1;rounded=0;entryX=1;entryY=0.296;entryDx=0;entryDy=0;entryPerimeter=0;exitX=-0.005;exitY=0.296;exitDx=0;exitDy=0;exitPerimeter=0;" edge="1" parent="50nzggHdHZp199gyNVKQ-11" source="50nzggHdHZp199gyNVKQ-50" target="50nzggHdHZp199gyNVKQ-50">
          <mxGeometry width="50" height="50" relative="1" as="geometry">
            <mxPoint x="830.7" y="1025" as="sourcePoint" />
            <mxPoint x="880.7" y="975" as="targetPoint" />
          </mxGeometry>
        </mxCell>
        <mxCell id="50nzggHdHZp199gyNVKQ-52" style="edgeStyle=orthogonalEdgeStyle;rounded=0;orthogonalLoop=1;jettySize=auto;html=1;exitX=0.5;exitY=1;exitDx=0;exitDy=0;entryX=0.688;entryY=-0.061;entryDx=0;entryDy=0;entryPerimeter=0;" edge="1" parent="50nzggHdHZp199gyNVKQ-11" source="50nzggHdHZp199gyNVKQ-53" target="50nzggHdHZp199gyNVKQ-41">
          <mxGeometry relative="1" as="geometry" />
        </mxCell>
        <mxCell id="50nzggHdHZp199gyNVKQ-53" value="" style="rounded=1;whiteSpace=wrap;html=1;" vertex="1" parent="50nzggHdHZp199gyNVKQ-11">
          <mxGeometry x="325.7" y="840" width="140" height="100" as="geometry" />
        </mxCell>
        <mxCell id="50nzggHdHZp199gyNVKQ-47" value="caso não seja aceito" style="edgeStyle=orthogonalEdgeStyle;rounded=0;orthogonalLoop=1;jettySize=auto;html=1;exitX=0;exitY=0.5;exitDx=0;exitDy=0;" edge="1" parent="50nzggHdHZp199gyNVKQ-11" source="50nzggHdHZp199gyNVKQ-48" target="50nzggHdHZp199gyNVKQ-53">
          <mxGeometry x="0.0432" y="-20" relative="1" as="geometry">
            <mxPoint as="offset" />
          </mxGeometry>
        </mxCell>
        <mxCell id="50nzggHdHZp199gyNVKQ-54" value="" style="endArrow=none;html=1;rounded=0;entryX=1;entryY=0.296;entryDx=0;entryDy=0;entryPerimeter=0;exitX=-0.005;exitY=0.296;exitDx=0;exitDy=0;exitPerimeter=0;" edge="1" parent="50nzggHdHZp199gyNVKQ-11" source="50nzggHdHZp199gyNVKQ-53" target="50nzggHdHZp199gyNVKQ-53">
          <mxGeometry width="50" height="50" relative="1" as="geometry">
            <mxPoint x="610.7" y="750" as="sourcePoint" />
            <mxPoint x="660.7" y="700" as="targetPoint" />
          </mxGeometry>
        </mxCell>
        <mxCell id="50nzggHdHZp199gyNVKQ-55" value="Cliente logado" style="text;html=1;strokeColor=none;fillColor=none;align=center;verticalAlign=middle;whiteSpace=wrap;rounded=0;" vertex="1" parent="50nzggHdHZp199gyNVKQ-11">
          <mxGeometry x="755" y="1140" width="110" height="30" as="geometry" />
        </mxCell>
        <mxCell id="50nzggHdHZp199gyNVKQ-56" value="Recusado" style="text;html=1;strokeColor=none;fillColor=none;align=center;verticalAlign=middle;whiteSpace=wrap;rounded=0;" vertex="1" parent="50nzggHdHZp199gyNVKQ-11">
          <mxGeometry x="365.7" y="840" width="60" height="30" as="geometry" />
        </mxCell>
        <mxCell id="50nzggHdHZp199gyNVKQ-59" value="Selecionando a opção registrar" style="text;html=1;strokeColor=none;fillColor=none;align=center;verticalAlign=middle;whiteSpace=wrap;rounded=0;" vertex="1" parent="50nzggHdHZp199gyNVKQ-11">
          <mxGeometry x="152.5" y="80" width="167.5" height="30" as="geometry" />
        </mxCell>
        <mxCell id="50nzggHdHZp199gyNVKQ-57" value="Selecionando a opção logar" style="text;html=1;strokeColor=none;fillColor=none;align=center;verticalAlign=middle;whiteSpace=wrap;rounded=0;" vertex="1" parent="50nzggHdHZp199gyNVKQ-11">
          <mxGeometry x="160" y="660" width="105" height="30" as="geometry" />
        </mxCell>
        <mxCell id="50nzggHdHZp199gyNVKQ-66" style="edgeStyle=orthogonalEdgeStyle;rounded=0;orthogonalLoop=1;jettySize=auto;html=1;exitX=0.5;exitY=1;exitDx=0;exitDy=0;entryX=0.5;entryY=0;entryDx=0;entryDy=0;" edge="1" parent="50nzggHdHZp199gyNVKQ-11" source="50nzggHdHZp199gyNVKQ-60" target="50nzggHdHZp199gyNVKQ-65">
          <mxGeometry relative="1" as="geometry" />
        </mxCell>
        <mxCell id="50nzggHdHZp199gyNVKQ-60" value="" style="rounded=1;whiteSpace=wrap;html=1;" vertex="1" parent="50nzggHdHZp199gyNVKQ-11">
          <mxGeometry x="740" y="870" width="140" height="100" as="geometry" />
        </mxCell>
        <mxCell id="50nzggHdHZp199gyNVKQ-61" value="" style="endArrow=none;html=1;rounded=0;entryX=1;entryY=0.296;entryDx=0;entryDy=0;entryPerimeter=0;exitX=-0.005;exitY=0.296;exitDx=0;exitDy=0;exitPerimeter=0;" edge="1" parent="50nzggHdHZp199gyNVKQ-11" source="50nzggHdHZp199gyNVKQ-60" target="50nzggHdHZp199gyNVKQ-60">
          <mxGeometry width="50" height="50" relative="1" as="geometry">
            <mxPoint x="840.7" y="845" as="sourcePoint" />
            <mxPoint x="890.7" y="795" as="targetPoint" />
          </mxGeometry>
        </mxCell>
        <mxCell id="50nzggHdHZp199gyNVKQ-62" value="Solicitação de acesso via e-mail" style="text;html=1;strokeColor=none;fillColor=none;align=center;verticalAlign=middle;whiteSpace=wrap;rounded=0;" vertex="1" parent="50nzggHdHZp199gyNVKQ-11">
          <mxGeometry x="755" y="870" width="110" height="30" as="geometry" />
        </mxCell>
        <mxCell id="50nzggHdHZp199gyNVKQ-67" style="edgeStyle=orthogonalEdgeStyle;rounded=0;orthogonalLoop=1;jettySize=auto;html=1;exitX=0.5;exitY=1;exitDx=0;exitDy=0;" edge="1" parent="50nzggHdHZp199gyNVKQ-11" source="50nzggHdHZp199gyNVKQ-65" target="50nzggHdHZp199gyNVKQ-55">
          <mxGeometry relative="1" as="geometry" />
        </mxCell>
        <mxCell id="50nzggHdHZp199gyNVKQ-75" value="Caso não haja &lt;br&gt;confirmação" style="edgeStyle=orthogonalEdgeStyle;rounded=0;orthogonalLoop=1;jettySize=auto;html=1;exitX=0;exitY=0.5;exitDx=0;exitDy=0;" edge="1" parent="50nzggHdHZp199gyNVKQ-11" source="50nzggHdHZp199gyNVKQ-65" target="50nzggHdHZp199gyNVKQ-69">
          <mxGeometry x="-0.2434" y="-20" relative="1" as="geometry">
            <mxPoint as="offset" />
          </mxGeometry>
        </mxCell>
        <mxCell id="50nzggHdHZp199gyNVKQ-65" value="" style="rhombus;whiteSpace=wrap;html=1;" vertex="1" parent="50nzggHdHZp199gyNVKQ-11">
          <mxGeometry x="790" y="1010" width="40" height="40" as="geometry" />
        </mxCell>
        <mxCell id="50nzggHdHZp199gyNVKQ-76" style="edgeStyle=orthogonalEdgeStyle;rounded=0;orthogonalLoop=1;jettySize=auto;html=1;exitX=0;exitY=1;exitDx=0;exitDy=0;entryX=1;entryY=0;entryDx=0;entryDy=0;" edge="1" parent="50nzggHdHZp199gyNVKQ-11" source="50nzggHdHZp199gyNVKQ-69" target="50nzggHdHZp199gyNVKQ-41">
          <mxGeometry relative="1" as="geometry" />
        </mxCell>
        <mxCell id="50nzggHdHZp199gyNVKQ-69" value="" style="rounded=1;whiteSpace=wrap;html=1;" vertex="1" parent="50nzggHdHZp199gyNVKQ-11">
          <mxGeometry x="580.7" y="990" width="140" height="70" as="geometry" />
        </mxCell>
        <mxCell id="50nzggHdHZp199gyNVKQ-70" value="" style="endArrow=none;html=1;rounded=0;entryX=1;entryY=0.296;entryDx=0;entryDy=0;entryPerimeter=0;exitX=-0.005;exitY=0.296;exitDx=0;exitDy=0;exitPerimeter=0;" edge="1" parent="50nzggHdHZp199gyNVKQ-11" source="50nzggHdHZp199gyNVKQ-69" target="50nzggHdHZp199gyNVKQ-69">
          <mxGeometry width="50" height="50" relative="1" as="geometry">
            <mxPoint x="671.4000000000001" y="875" as="sourcePoint" />
            <mxPoint x="721.4000000000001" y="825" as="targetPoint" />
          </mxGeometry>
        </mxCell>
        <mxCell id="50nzggHdHZp199gyNVKQ-71" value="Solicitação inválida" style="text;html=1;strokeColor=none;fillColor=none;align=center;verticalAlign=middle;whiteSpace=wrap;rounded=0;" vertex="1" parent="50nzggHdHZp199gyNVKQ-11">
          <mxGeometry x="595.7" y="990" width="110" height="30" as="geometry" />
        </mxCell>
      </root>
    </mxGraphModel>
  </diagram>
</mxfile>
